HIERARCHY
ROOT joint_Root
{
	OFFSET 0.0 0.0 0.0
	CHANNELS 6 Xposition Yposition Zposition Zrotation Xrotation Yrotation 
	JOINT Hips
	{
		OFFSET 4.5925 91.4895 -427.239
		CHANNELS 6 Xposition Yposition Zposition Zrotation Xrotation Yrotation 
		JOINT Spine
		{
			OFFSET 15.7357 0.0 0.0
			CHANNELS 6 Xposition Yposition Zposition Zrotation Xrotation Yrotation 
			JOINT Chest
			{
				OFFSET 8.98455 -0.406207 0.0
				CHANNELS 6 Xposition Yposition Zposition Zrotation Xrotation Yrotation 
				JOINT Neck
				{
					OFFSET 16.3773 0.0 0.0
					CHANNELS 6 Xposition Yposition Zposition Zrotation Xrotation Yrotation 
					JOINT Head
					{
						OFFSET 6.45672 0.0 0.0
						CHANNELS 6 Xposition Yposition Zposition Zrotation Xrotation Yrotation 
						End Site
						{
							OFFSET 0.0 0.0 0.0
						}
					}
				}
				JOINT Shoulder_L
				{
					OFFSET 12.9942 -0.242716 4.98039
					CHANNELS 6 Xposition Yposition Zposition Zrotation Xrotation Yrotation 
					JOINT UpperArm_L
					{
						OFFSET 5.34809 0.0 0.0
						CHANNELS 6 Xposition Yposition Zposition Zrotation Xrotation Yrotation 
						JOINT LowerArm_L
						{
							OFFSET 24.3286 1.87007e-05 0.0
							CHANNELS 6 Xposition Yposition Zposition Zrotation Xrotation Yrotation 
							JOINT Hand_L
							{
								OFFSET 22.2916 0.0 0.0
								CHANNELS 6 Xposition Yposition Zposition Zrotation Xrotation Yrotation 
								End Site
								{
									OFFSET 0.0 0.0 0.0
								}
							}
						}
					}
				}
				JOINT Shoulder_R
				{
					OFFSET 12.9945 -0.242716 -4.98039
					CHANNELS 6 Xposition Yposition Zposition Zrotation Xrotation Yrotation 
					JOINT UpperArm_R
					{
						OFFSET -5.34813 0.0 0.0
						CHANNELS 6 Xposition Yposition Zposition Zrotation Xrotation Yrotation 
						JOINT LowerArm_R
						{
							OFFSET -24.3289 0.000322201 0.0
							CHANNELS 6 Xposition Yposition Zposition Zrotation Xrotation Yrotation 
							JOINT Hand_R
							{
								OFFSET -22.2915 -0.000108084 0.0
								CHANNELS 6 Xposition Yposition Zposition Zrotation Xrotation Yrotation 
								End Site
								{
									OFFSET 0.0 0.0 0.0
								}
							}
						}
					}
				}
			}
		}
		JOINT UpperLeg_L
		{
			OFFSET -2.19248 -6.46944 0.0
			CHANNELS 6 Xposition Yposition Zposition Zrotation Xrotation Yrotation 
			JOINT LowerLeg_L
			{
				OFFSET 39.0811 0.0 -1.23785e-05
				CHANNELS 6 Xposition Yposition Zposition Zrotation Xrotation Yrotation 
				JOINT Foot_L
				{
					OFFSET 40.9854 0.0 -1.26872e-05
					CHANNELS 6 Xposition Yposition Zposition Zrotation Xrotation Yrotation 
					JOINT Toes_L
					{
						OFFSET 11.7543 0.0 0.0
						CHANNELS 6 Xposition Yposition Zposition Zrotation Xrotation Yrotation 
						End Site
						{
							OFFSET 0.0 0.0 0.0
						}
					}
				}
			}
		}
		JOINT UpperLeg_R
		{
			OFFSET -2.19251 6.46944 0.0
			CHANNELS 6 Xposition Yposition Zposition Zrotation Xrotation Yrotation 
			JOINT LowerLeg_R
			{
				OFFSET -39.0811 -0.00228153 -0.0401928
				CHANNELS 6 Xposition Yposition Zposition Zrotation Xrotation Yrotation 
				JOINT Foot_R
				{
					OFFSET -40.9854 0.0 0.0
					CHANNELS 6 Xposition Yposition Zposition Zrotation Xrotation Yrotation 
					JOINT Toes_R
					{
						OFFSET -11.7543 0.0 0.0
						CHANNELS 6 Xposition Yposition Zposition Zrotation Xrotation Yrotation 
						End Site
						{
							OFFSET 0.0 0.0 0.0
						}
					}
				}
			}
		}
	}
}
MOTION
Frames:	8
Frame Time:	0.0333333
0.000000 0.000000 0.000000 0.000000 0.000000 -0.000000 -1.342460 84.638300 7.319030 -92.522500 10.135800 -178.073000 15.735700 0.000005 -0.000001 117.535000 81.562100 -119.648000 8.984550 -0.406207 -0.000000 7.397460 7.779730 -4.730020 16.377300 -0.000001 -0.000001 -0.105288 -3.882630 1.516640 6.456720 -0.000001 -0.000000 -2.869650 -9.490460 3.642620 12.994200 -0.242716 4.980390 -93.186800 7.673350 -67.363900 5.348090 -0.000007 -0.000001 -55.355700 27.662400 3.778370 24.328600 0.000019 0.000005 7.587930 0.070596 -89.469900 22.291600 -0.000001 0.000005 5.255300 5.522840 -7.487040 12.994500 -0.242716 -4.980390 88.862200 11.590600 -84.354400 -5.348130 -0.000001 -0.000004 -61.194700 34.871600 -16.940000 -24.328900 0.000322 -0.000009 -11.549800 -3.190080 -74.789300 -22.291500 -0.000108 -0.000004 25.362100 5.633390 -13.612000 -2.192480 -6.469440 -0.000000 172.751000 -10.959900 -34.089600 39.081100 -0.000007 -0.000012 -0.205552 0.160181 52.072400 40.985400 -0.000006 -0.000013 3.763220 -7.629190 -67.789000 11.754300 -0.000000 0.000003 -0.000026 -0.000322 -16.590200 -2.192510 6.469440 -0.000001 164.990000 7.588140 -179.558000 -39.081100 -0.002282 -0.040193 0.326554 -0.180191 60.871700 -40.985400 0.000008 0.000006 4.667590 4.896340 -22.753900 -11.754300 -0.000006 -0.000006 -0.020776 -0.171549 -23.583400
0.000000 0.000000 0.000000 0.000000 0.000000 -0.000000 -1.691290 84.957500 2.195920 -92.641300 6.464980 -177.056000 15.735700 0.000005 -0.000001 108.281000 82.020900 -110.316000 8.984550 -0.406207 -0.000000 7.500450 4.991390 -4.396140 16.377300 -0.000001 -0.000001 0.540044 -4.628960 1.502090 6.456720 -0.000001 -0.000000 -1.228250 -8.702870 4.267300 12.994200 -0.242716 4.980390 -93.337300 8.715150 -68.951700 5.348090 -0.000007 -0.000001 -59.393600 27.574100 -13.608400 24.328600 0.000019 0.000005 10.443900 -0.264972 -91.437800 22.291600 -0.000001 0.000005 4.103050 5.541390 -8.302840 12.994500 -0.242716 -4.980390 88.645700 11.402600 -83.181000 -5.348130 -0.000001 -0.000004 -67.411600 29.869300 -2.271930 -24.328900 0.000322 -0.000009 -11.571600 -6.721730 -60.249100 -22.291500 -0.000108 -0.000004 27.338100 5.653770 -15.413200 -2.192480 -6.469440 -0.000000 172.393000 -8.758520 -29.076700 39.081100 -0.000007 -0.000012 -0.247509 0.189852 52.510800 40.985400 -0.000006 -0.000013 4.037480 -6.855270 -71.902600 11.754300 -0.000000 0.000003 -0.000055 -0.000610 -16.601200 -2.192510 6.469440 -0.000001 167.236000 6.309990 174.401000 -39.081100 -0.002282 -0.040193 0.277820 -0.095030 70.918700 -40.985400 0.000008 0.000006 3.407750 1.397340 -25.089800 -11.754300 -0.000006 -0.000006 -0.023011 -0.183428 -24.073400
0.000000 0.000000 0.000000 0.000000 0.000000 -0.000000 -1.756300 86.126000 -2.608860 -91.697100 2.187140 -176.809000 15.735700 0.000005 -0.000001 93.775800 82.549900 -95.342900 8.984550 -0.406207 -0.000000 7.118100 0.986603 -3.192140 16.377300 -0.000001 -0.000001 0.966046 -4.634180 0.592284 6.456720 -0.000001 -0.000000 0.085033 -7.012080 5.434610 12.994200 -0.242716 4.980390 -92.117500 6.347630 -71.516500 5.348090 -0.000007 -0.000001 -65.425900 29.330500 -27.837600 24.328600 0.000019 0.000005 10.723100 -1.141490 -96.004800 22.291600 -0.000001 0.000005 5.494010 5.509870 -6.965420 12.994500 -0.242716 -4.980390 88.347900 11.559100 -81.807900 -5.348130 -0.000001 -0.000004 -65.575200 31.391900 10.779500 -24.328900 0.000322 -0.000009 -16.864300 -9.168280 -62.270200 -22.291500 -0.000108 -0.000004 27.004400 5.662310 -16.343200 -2.192480 -6.469440 -0.000000 173.478000 -7.700140 -23.203800 39.081100 -0.000007 -0.000012 -0.212818 0.181168 49.593600 40.985400 -0.000006 -0.000013 4.928880 -4.045200 -74.202600 11.754300 -0.000000 0.000003 -0.000070 -0.000756 -16.606800 -2.192510 6.469440 -0.000001 170.713000 6.366900 168.369000 -39.081100 -0.002282 -0.040193 0.161104 -0.035985 77.180000 -40.985400 0.000008 0.000006 4.690400 3.898040 -34.887700 -11.754300 -0.000006 -0.000006 -0.021609 -0.176041 -23.768600
0.000000 0.000000 0.000000 0.000000 0.000000 -0.000000 -1.652240 87.799600 -7.516730 -90.567500 -1.548110 -176.279000 15.735700 0.000005 -0.000001 72.646900 82.131800 -73.576500 8.984550 -0.406207 -0.000000 7.235010 -4.672160 -1.562330 16.377300 -0.000001 -0.000001 0.966224 -3.475720 -0.760500 6.456720 -0.000001 -0.000000 -0.007782 -3.010540 4.871150 12.994200 -0.242716 4.980390 -90.319000 1.055860 -73.212000 5.348090 -0.000007 -0.000001 -67.024700 30.620700 -39.673300 24.328600 0.000019 0.000005 8.352330 -1.984730 -103.285000 22.291600 -0.000001 0.000005 8.784690 5.486070 -5.982950 12.994500 -0.242716 -4.980390 88.370700 8.919160 -79.600800 -5.348130 -0.000001 -0.000004 -63.366600 37.434600 19.110000 -24.328900 0.000322 -0.000009 -13.745000 -5.847960 -67.398300 -22.291500 -0.000108 -0.000004 24.399300 5.667760 -17.066200 -2.192480 -6.469440 -0.000000 175.387000 -6.982590 -15.717800 39.081100 -0.000007 -0.000012 -0.161710 0.168791 43.773200 40.985400 -0.000006 -0.000013 5.464900 -1.029350 -75.123200 11.754300 -0.000000 0.000003 -0.000073 -0.000782 -16.607800 -2.192510 6.469440 -0.000001 173.781000 6.718550 163.063000 -39.081100 -0.002282 -0.040193 0.113084 -0.022974 78.218400 -40.985400 0.000008 0.000006 3.730890 2.060750 -40.025900 -11.754300 -0.000006 -0.000006 -0.021831 -0.177225 -23.817500
0.000000 0.000000 0.000000 0.000000 0.000000 -0.000000 -1.471950 89.670500 -12.207100 -88.956600 -2.857520 -177.090000 15.735700 0.000005 -0.000001 58.878000 81.631700 -58.911100 8.984550 -0.406207 -0.000000 6.616620 -8.623280 0.433193 16.377300 -0.000001 -0.000001 1.171140 -2.524110 -1.494490 6.456720 -0.000001 -0.000000 -0.359164 0.872349 2.786850 12.994200 -0.242716 4.980390 -89.049700 -3.407810 -74.405300 5.348090 -0.000007 -0.000001 -62.515400 28.688000 -50.828600 24.328600 0.000019 0.000005 6.776080 -2.574650 -110.704000 22.291600 -0.000001 0.000005 7.105900 5.483560 -5.886690 12.994500 -0.242716 -4.980390 88.680000 5.585740 -76.671900 -5.348130 -0.000001 -0.000004 -59.729100 42.809300 23.934600 -24.328900 0.000322 -0.000009 -9.386990 -2.740460 -73.869400 -22.291500 -0.000108 -0.000004 21.820000 5.670080 -17.389600 -2.192480 -6.469440 -0.000000 177.924000 -7.175450 -8.697230 39.081100 -0.000007 -0.000012 -0.140027 0.198273 35.231500 40.985400 -0.000006 -0.000013 5.282010 1.085620 -74.451100 11.754300 -0.000000 0.000003 -0.000045 -0.000515 -16.597600 -2.192510 6.469440 -0.000001 177.474000 5.186000 157.237000 -39.081100 -0.002282 -0.040193 0.028571 -0.007090 74.479500 -40.985400 0.000008 0.000006 5.208810 -0.799488 -44.671300 -11.754300 -0.000006 -0.000006 -0.018954 -0.161423 -23.166300
0.000000 0.000000 0.000000 0.000000 0.000000 -0.000000 -1.143820 91.247200 -16.670500 -86.157400 -3.635550 -179.146000 15.735700 0.000005 -0.000001 48.249900 81.357600 -46.866300 8.984550 -0.406207 -0.000000 5.356210 -11.513900 3.311640 16.377300 -0.000001 -0.000001 1.599670 -1.789990 -1.841950 6.456720 -0.000001 -0.000000 -0.489535 3.937850 0.915949 12.994200 -0.242716 4.980390 -88.076800 -7.078970 -74.758200 5.348090 -0.000007 -0.000001 -56.847200 24.609200 -59.552000 24.328600 0.000019 0.000005 7.357770 -3.633740 -116.144000 22.291600 -0.000001 0.000005 5.737600 5.477830 -5.665250 12.994500 -0.242716 -4.980390 89.652500 1.175900 -73.497600 -5.348130 -0.000001 -0.000004 -56.054400 45.874300 25.612600 -24.328900 0.000322 -0.000009 -8.183440 -1.543460 -79.393500 -22.291500 -0.000108 -0.000004 20.494100 5.666850 -16.915800 -2.192480 -6.469440 -0.000000 -178.557000 -7.407090 -2.816500 39.081100 -0.000007 -0.000012 -0.073135 0.153454 25.482300 40.985400 -0.000006 -0.000013 5.642650 2.420510 -72.878100 11.754300 -0.000000 0.000003 -0.585994 -0.731809 -16.122400 -2.192510 6.469440 -0.000001 -178.100000 3.134730 151.925000 -39.081100 -0.002282 -0.040193 -0.010811 0.006190 66.096700 -40.985400 0.000008 0.000006 5.797440 -4.023610 -49.268600 -11.754300 -0.000006 -0.000006 -0.019584 -0.164974 -23.312500
0.000000 0.000000 0.000000 0.000000 0.000000 -0.000000 -0.953791 92.212400 -20.986400 -85.035600 -3.874950 179.295000 15.735700 0.000005 -0.000001 40.425400 80.816200 -38.339200 8.984550 -0.406207 -0.000000 4.515110 -14.019000 4.739160 16.377300 -0.000001 -0.000001 2.140000 -0.901331 -1.356080 6.456720 -0.000001 -0.000000 -0.800943 6.502210 -0.252355 12.994200 -0.242716 4.980390 -87.100500 -10.325500 -74.221500 5.348090 -0.000007 -0.000001 -51.878900 19.387400 -65.202600 24.328600 0.000019 0.000005 5.755160 -3.330100 -119.959000 22.291600 -0.000001 0.000005 5.389380 5.473010 -5.483310 12.994500 -0.242716 -4.980390 91.073700 -3.196130 -71.426100 -5.348130 -0.000001 -0.000004 -53.117400 45.130100 25.498500 -24.328900 0.000322 -0.000009 -5.242390 -0.572357 -83.790200 -22.291500 -0.000108 -0.000004 19.260800 5.662160 -16.305300 -2.192480 -6.469440 -0.000000 -176.506000 -10.834100 1.231150 39.081100 -0.000007 -0.000012 0.009833 -0.027919 19.403200 40.985400 -0.000006 -0.000013 7.320310 5.689110 -68.888500 11.754300 -0.000000 0.000003 -1.634590 -1.961770 -19.420900 -2.192510 6.469440 -0.000001 -176.126000 2.457810 149.039000 -39.081100 -0.002282 -0.040193 -0.007874 0.008100 53.896100 -40.985400 0.000008 0.000006 5.862470 -5.266880 -53.004500 -11.754300 -0.000006 -0.000006 -0.020153 -0.168135 -23.442700
0.000000 0.000000 0.000000 0.000000 0.000000 -0.000000 -0.948346 92.220200 -25.387900 -85.746900 -3.735630 178.619000 15.735700 0.000005 -0.000001 35.269700 80.193800 -33.309700 8.984550 -0.406207 -0.000000 3.969020 -16.056200 4.495580 16.377300 -0.000001 -0.000001 3.159960 -0.170267 -0.222492 6.456720 -0.000001 -0.000000 -1.504420 8.545290 -0.697311 12.994200 -0.242716 4.980390 -86.148000 -13.114200 -73.472000 5.348090 -0.000007 -0.000001 -47.221900 14.365900 -68.451800 24.328600 0.000019 0.000005 4.517220 -2.828320 -121.988000 22.291600 -0.000001 0.000005 6.049690 5.468760 -5.325060 12.994500 -0.242716 -4.980390 92.566300 -7.126220 -70.136600 -5.348130 -0.000001 -0.000004 -52.010100 42.261600 25.057400 -24.328900 0.000322 -0.000009 -3.297350 -0.144999 -87.482600 -22.291500 -0.000108 -0.000004 18.681100 5.652600 -15.269800 -2.192480 -6.469440 -0.000000 -175.058000 -16.743200 4.124120 39.081100 -0.000007 -0.000012 -0.003902 0.011745 18.377400 40.985400 -0.000006 -0.000013 6.999810 12.243900 -66.522700 11.754300 -0.000000 0.000003 -1.017880 -1.192700 -23.689800 -2.192510 6.469440 -0.000001 -175.557000 4.953560 148.087000 -39.081100 -0.002282 -0.040193 0.005730 -0.002896 40.248600 -40.985400 0.000008 0.000006 4.136670 -2.072010 -55.586500 -11.754300 -0.000006 -0.000006 -0.022203 -0.179199 -23.898900
